HIERARCHY
ROOT Hips
{
 OFFSET 0.000000 0.000000 0.000000
 CHANNELS 6 Xposition Yposition Zposition Yrotation Xrotation Zrotation
 JOINT Chest
 {
  OFFSET 0.000000 10.802813 -1.200313
  CHANNELS 3 Yrotation Xrotation Zrotation
  JOINT Chest2
  {
   OFFSET 0.000000 8.372586 0.000000
   CHANNELS 3 Yrotation Xrotation Zrotation
   JOINT Chest3
   {
    OFFSET 0.000000 7.669674 -0.171725
    CHANNELS 3 Yrotation Xrotation Zrotation
    JOINT Chest4
    {
     OFFSET 0.000000 7.661079 -0.171898
     CHANNELS 3 Yrotation Xrotation Zrotation
     JOINT Neck
     {
      OFFSET 0.000000 11.568124 0.000000
      CHANNELS 3 Yrotation Xrotation Zrotation
      JOINT Head
      {
       OFFSET 0.000000 10.283701 0.120962
       CHANNELS 3 Yrotation Xrotation Zrotation
       End Site
       {
        OFFSET 0.000000 21.208083 -0.017133
       }
      }
     }
     JOINT RightCollar
     {
      OFFSET -3.542312 6.586956 0.000000
      CHANNELS 3 Yrotation Xrotation Zrotation
      JOINT RightShoulder
      {
       OFFSET -19.072397 0.000000 0.000000
       CHANNELS 3 Yrotation Xrotation Zrotation
       JOINT RightElbow
       {
        OFFSET -29.485962 0.000000 0.000000
        CHANNELS 3 Yrotation Xrotation Zrotation
        JOINT RightWrist
        {
         OFFSET -22.858855 0.000000 0.009263
         CHANNELS 3 Yrotation Xrotation Zrotation
         End Site
         {
          OFFSET -20.098599 0.000000 0.000000
         }
        }
       }
      }
     }
     JOINT LeftCollar
     {
      OFFSET 3.542312 6.586956 0.000000
      CHANNELS 3 Yrotation Xrotation Zrotation
      JOINT LeftShoulder
      {
       OFFSET 19.072397 0.000000 0.000000
       CHANNELS 3 Yrotation Xrotation Zrotation
       JOINT LeftElbow
       {
        OFFSET 29.485962 0.000000 0.000000
        CHANNELS 3 Yrotation Xrotation Zrotation
        JOINT LeftWrist
        {
         OFFSET 22.858855 0.000000 0.009263
         CHANNELS 3 Yrotation Xrotation Zrotation
         End Site
         {
          OFFSET 20.098599 0.000000 0.000000
         }
        }
       }
      }
     }
    }
   }
  }
 }
 JOINT RightHip
 {
  OFFSET -9.573125 0.421555 -0.046839
  CHANNELS 3 Yrotation Xrotation Zrotation
  JOINT RightKnee
  {
   OFFSET 0.000000 -59.485791 0.004776
   CHANNELS 3 Yrotation Xrotation Zrotation
   JOINT RightAnkle
   {
    OFFSET 0.000000 -44.784867 -0.013196
    CHANNELS 3 Yrotation Xrotation Zrotation
    JOINT RightToe
    {
     OFFSET 0.000000 -6.003679 15.376803
     CHANNELS 3 Yrotation Xrotation Zrotation
     End Site
     {
      OFFSET 0.000000 -1.912064 8.665418
     }
    }
   }
  }
 }
 JOINT LeftHip
 {
  OFFSET 9.573125 0.419091 -0.046566
  CHANNELS 3 Yrotation Xrotation Zrotation
  JOINT LeftKnee
  {
   OFFSET 0.000000 -59.485791 0.004776
   CHANNELS 3 Yrotation Xrotation Zrotation
   JOINT LeftAnkle
   {
    OFFSET 0.000000 -44.784867 -0.013196
    CHANNELS 3 Yrotation Xrotation Zrotation
    JOINT LeftToe
    {
     OFFSET 0.000000 -6.003679 15.376803
     CHANNELS 3 Yrotation Xrotation Zrotation
     End Site
     {
      OFFSET 0.000000 -1.912064 8.665418
     }
    }
   }
  }
 }
}
MOTION
Frames: 15
Frame Time: 0.016667
-15.632299 109.666977 152.022506 105.487245 35.310048 0.058598 1.399866 8.474754 -3.073797 0.817642 -2.067405 -1.385826 0.818985 3.752435 -1.302635 0.521138 8.648429 -0.991693 1.531362 6.709816 0.479131 2.812442 -23.561035 0.150061 8.903576 -10.003190 -2.272285 56.083891 -49.077476 0.551180 25.792138 -45.578615 7.669682 -1.196882 -27.129896 -10.799541 -3.906380 -3.494897 6.641487 -94.911187 -68.419932 32.202342 -13.417076 -29.748475 -8.212085 2.458736 -28.409203 9.705454 -4.771527 -51.205678 0.472190 -2.984997 18.830935 1.758605 -7.915540 -0.452490 1.090698 0.017258 -2.117524 -1.034471 0.276952 -51.419557 1.805945 1.346037 17.817875 -1.566551 2.032754 0.392931 -2.068452 -0.009570 -1.298515 2.006032
-15.551340 109.692637 152.008176 105.314580 35.951743 -0.006333 1.537147 8.740149 -3.259033 0.892285 -1.950740 -1.470633 0.893954 3.868987 -1.379840 0.572053 8.735462 -1.050950 1.438619 6.476418 0.583738 2.575482 -23.997883 0.403746 8.765904 -9.588372 -2.368984 58.654493 -49.503121 -2.522965 25.769185 -46.014801 5.782587 -1.633004 -27.539710 -9.895955 -4.653338 -3.777908 7.293131 -99.333009 -67.619125 36.892506 -12.767186 -29.669920 -6.865903 2.754922 -28.417497 8.912788 -4.458251 -51.798050 0.315163 -3.193439 18.789839 1.795366 -7.863185 -0.432716 1.211156 0.018527 -2.072489 -1.184379 0.102092 -51.977612 2.019073 1.437522 17.774962 -1.575442 2.170676 0.374016 -2.095441 -0.011805 -1.370562 2.007483
-15.440038 109.726899 151.965021 105.192294 36.616812 -0.058908 1.547182 8.958087 -3.387157 0.906486 -1.854209 -1.527736 0.908353 3.965501 -1.435486 0.579097 8.807657 -1.093462 1.431867 6.257236 0.613083 2.550001 -24.405602 0.461908 9.023840 -9.456677 -2.545140 60.756983 -49.523479 -5.226483 25.809224 -46.366604 3.723345 -2.332995 -27.931795 -8.700164 -4.945010 -4.203769 7.891676 -102.266896 -66.722306 40.012158 -12.575843 -29.538737 -5.636988 3.178172 -28.498511 8.233899 -4.475243 -52.334110 0.393773 -3.145415 18.632144 1.847002 -7.884983 -0.419577 1.293897 0.019026 -2.017111 -1.283903 -0.089625 -52.473330 2.227471 1.556138 17.591986 -1.593765 2.231503 0.332420 -2.115918 -0.012102 -1.345603 2.027157
-15.299910 109.769366 151.905497 105.102064 37.287218 -0.104787 1.501888 9.156649 -3.483312 0.893965 -1.765834 -1.569560 0.895954 4.053896 -1.478568 0.566940 8.873858 -1.126263 1.458758 6.050951 0.603540 2.612742 -24.788165 0.424078 9.429598 -9.418141 -2.751827 62.585269 -49.395924 -7.732487 25.904951 -46.645565 1.646004 -3.171611 -28.283027 -7.370385 -5.025234 -4.705655 8.446062 -104.278565 -65.785061 42.203403 -12.662688 -29.396869 -4.510554 3.669955 -28.615482 7.645767 -4.681938 -52.824600 0.611684 -2.976567 18.411462 1.900294 -7.938711 -0.414224 1.360732 0.019066 -1.952271 -1.360035 -0.293577 -52.919485 2.433663 1.677660 17.327012 -1.614587 2.260302 0.281124 -2.131432 -0.011369 -1.272664 2.051150
-15.135376 109.821335 151.855992 105.059853 37.969890 -0.146774 1.478464 9.392965 -3.574256 0.891184 -1.660820 -1.609496 0.893326 4.158908 -1.518781 0.562336 8.952503 -1.157013 1.459717 5.816732 0.613672 2.612879 -25.223117 0.439334 9.543642 -9.258158 -2.914720 64.596466 -49.310689 -10.457334 26.021316 -46.865179 -0.140059 -3.942024 -28.675795 -6.188872 -5.180357 -5.177706 8.992783 -105.804456 -64.515038 44.037616 -12.673966 -29.520060 -3.342078 4.161128 -28.799639 7.022483 -4.937050 -53.306994 0.873684 -2.852214 18.185092 1.919959 -7.970846 -0.406774 1.435068 0.019023 -1.896686 -1.434158 -0.486333 -53.377762 2.621427 1.753363 17.068559 -1.625921 2.289961 0.254475 -2.156439 -0.010607 -1.215907 2.072284
-14.952706 109.893003 151.839043 105.081348 38.746469 -0.190571 1.532556 9.691081 -3.676751 0.924212 -1.528956 -1.656146 0.926625 4.290713 -1.562065 0.584483 9.051138 -1.190427 1.391234 5.508932 0.677583 2.443411 -25.796262 0.600794 8.987516 -8.754975 -2.961462 67.316863 -49.464100 -13.916590 26.105155 -46.996138 -1.390240 -4.537914 -29.166461 -5.309359 -5.550157 -5.599197 9.592875 -106.652293 -62.553863 45.411548 -12.475453 -30.231469 -1.976096 4.630215 -29.111512 6.307375 -5.240323 -53.868493 1.199574 -2.841981 17.957870 1.879354 -7.941996 -0.372418 1.528724 0.018563 -1.841876 -1.519783 -0.624356 -53.954015 2.761263 1.710613 16.838939 -1.625406 2.352681 0.296198 -2.200557 -0.009663 -1.193632 2.085327
-14.745628 109.974174 151.832113 105.152480 39.535410 -0.227884 1.608431 10.027286 -3.774532 0.967057 -1.380344 -1.701216 0.969831 4.439247 -1.602750 0.614295 9.162296 -1.222006 1.297547 5.173345 0.762726 2.209734 -26.421349 0.820880 8.141428 -8.130835 -2.939654 70.257789 -49.607773 -17.645770 26.208797 -47.079729 -2.347086 -5.062417 -29.707680 -4.579188 -5.991686 -5.988169 10.194159 -107.009340 -60.295766 46.454684 -12.204135 -31.213635 -0.564736 5.104375 -29.488361 5.555756 -5.595805 -54.421324 1.573340 -2.875541 17.724983 1.806333 -7.891454 -0.335968 1.629921 0.017973 -1.796316 -1.603380 -0.750050 -54.542872 2.879665 1.622322 16.615851 -1.614633 2.416150 0.362633 -2.254184 -0.008700 -1.187555 2.095551
-14.499754 110.035556 151.793982 105.244700 40.098817 -0.240959 1.616601 10.387082 -3.844463 0.978240 -1.220633 -1.732523 0.981354 4.598951 -1.632888 0.621183 9.281957 -1.245418 1.251560 4.906178 0.827438 2.082453 -26.918628 0.975239 7.698843 -7.843073 -2.961710 72.277334 -49.335597 -20.514707 26.455647 -47.235752 -3.435284 -5.624811 -30.233104 -3.821107 -6.368572 -6.294604 10.667071 -107.690583 -58.524719 47.871252 -11.920014 -31.786306 0.576891 5.584622 -29.777500 4.815399 -5.853264 -54.742899 1.827457 -2.908158 17.529670 1.747902 -7.883784 -0.361919 1.726716 0.018813 -1.804167 -1.665734 -0.970661 -54.888849 3.047787 1.657757 16.420971 -1.588458 2.416691 0.356962 -2.303068 -0.009253 -1.206975 2.111598
-14.188637 110.050769 151.697161 105.367682 40.148849 -0.206623 1.505337 10.828641 -3.859963 0.933346 -1.023486 -1.737064 0.936694 4.796193 -1.641988 0.587563 9.429996 -1.252582 1.295221 4.771440 0.845306 2.162885 -27.168845 0.985078 8.092771 -8.254764 -3.124622 72.453083 -48.409092 -21.624296 26.972084 -47.592017 -4.893330 -6.243713 -30.697723 -2.968822 -6.603211 -6.507466 10.929664 -109.310957 -57.722389 50.154696 -11.597793 -31.505327 1.234613 6.030161 -29.829119 4.076953 -5.920720 -54.552603 1.838780 -2.896331 17.414278 1.727530 -7.975528 -0.508221 1.819767 0.023442 -1.934055 -1.694886 -1.370093 -54.693835 3.314562 1.982349 16.289239 -1.537535 2.256467 0.200064 -2.341837 -0.013372 -1.284210 2.145491
-13.838724 110.046193 151.569140 105.510998 39.973201 -0.149626 1.328199 11.293803 -3.848115 0.857484 -0.815278 -1.727737 0.860899 5.004518 -1.640371 0.531370 9.586446 -1.251352 1.386327 4.705162 0.840417 2.352512 -27.291262 0.921979 8.895336 -8.999570 -3.368947 71.720626 -47.180912 -21.858555 27.641544 -48.011596 -6.501093 -6.899075 -31.145049 -2.087748 -6.779123 -6.640733 11.056746 -111.349844 -57.337954 52.860511 -11.281095 -30.819365 1.628756 6.477241 -29.794203 3.354463 -5.882710 -54.132163 1.721915 -2.883954 17.336576 1.721029 -8.110566 -0.716693 1.908963 0.029726 -2.117319 -1.702655 -1.851879 -54.254774 3.617815 2.429902 16.185400 -1.474232 2.033434 -0.028966 -2.375384 -0.019220 -1.386935 2.185200
-13.514958 110.071674 151.451171 105.618108 40.197417 -0.121970 1.154144 11.593339 -3.862863 0.783499 -0.680756 -1.729863 0.786784 5.139133 -1.649993 0.475474 9.687565 -1.258373 1.471908 4.611239 0.846393 2.525199 -27.465072 0.883559 9.494522 -9.450837 -3.566408 71.581929 -46.202766 -22.628950 28.200617 -48.218894 -7.971872 -7.647017 -31.635858 -1.192824 -7.003219 -6.682361 11.150870 -112.772514 -56.642938 55.121818 -11.122561 -30.385370 2.092022 7.045945 -29.968810 2.728841 -5.841133 -54.103785 1.652016 -2.957650 17.213179 1.703869 -8.184223 -0.877878 1.980539 0.032637 -2.192204 -1.705652 -2.272286 -54.209045 3.886640 2.672322 16.026257 -1.424707 1.977876 -0.189828 -2.405882 -0.022160 -1.427496 2.203297
-13.264210 110.161972 151.369964 105.664942 41.288825 -0.155823 1.005332 11.565539 -3.928159 0.721622 -0.691953 -1.754838 0.724602 5.128013 -1.681228 0.426713 9.679301 -1.281479 1.531484 4.433835 0.880142 2.630155 -27.794461 0.915271 9.554737 -9.269191 -3.622745 72.841476 -45.784132 -24.693204 28.438688 -47.967092 -9.084179 -8.558838 -32.276070 -0.239786 -7.369396 -6.631379 11.233490 -112.937665 -55.319216 56.475601 -11.203598 -30.512472 2.754121 7.862323 -30.504701 2.239755 -5.815670 -54.932551 1.699521 -3.216350 16.989959 1.668119 -8.122925 -0.937707 2.012678 0.028023 -2.019272 -1.706661 -2.589003 -55.036077 4.123842 2.470968 15.761937 -1.415839 2.266330 -0.196081 -2.434287 -0.018167 -1.323875 2.184204
-13.039611 110.282326 151.298810 105.674211 42.780213 -0.219385 0.858117 11.371870 -4.015000 0.660598 -0.776845 -1.789626 0.663241 5.043197 -1.722245 0.377755 9.615746 -1.311864 1.585898 4.228640 0.925419 2.718415 -28.175664 0.972919 9.406130 -8.799469 -3.611802 74.661998 -45.562573 -27.276274 28.543997 -47.512685 -10.028940 -9.573989 -32.950570 0.742748 -7.783965 -6.487269 11.285937 -112.492855 -53.760740 57.418138 -11.438364 -30.888925 3.493674 8.817921 -31.242678 1.832184 -5.785881 -56.154007 1.787775 -3.560399 16.721022 1.624283 -7.999883 -0.950537 2.026688 0.020012 -1.737953 -1.703169 -2.872137 -56.256884 4.356523 2.065947 15.443034 -1.413684 2.722152 -0.133670 -2.459799 -0.011311 -1.158087 2.143508
-12.765502 110.378296 151.198830 105.664548 43.895447 -0.264280 0.713869 11.307706 -4.098116 0.601728 -0.804142 -1.822871 0.604169 5.015971 -1.761537 0.330788 9.595388 -1.341142 1.644843 4.066587 0.966805 2.817828 -28.476656 1.020491 9.422018 -8.449404 -3.637727 75.955425 -45.144168 -29.380885 28.842638 -47.338318 -11.130188 -10.538716 -33.392666 1.616566 -8.068889 -6.238561 11.347562 -112.202694 -52.354030 58.389833 -11.713155 -31.240481 4.254418 9.680640 -32.013444 1.449556 -5.786108 -56.995877 1.870210 -3.779128 16.485389 1.573843 -7.930279 -0.969810 2.072685 0.016010 -1.604817 -1.703859 -3.146982 -57.071955 4.554972 1.846368 15.137608 -1.355787 3.046121 -0.121466 -2.483612 -0.008456 -1.088534 2.100535
-12.390843 110.418821 151.038730 105.633074 44.162934 -0.259966 0.570912 11.557139 -4.174377 0.545696 -0.692024 -1.852546 0.548085 5.128149 -1.796941 0.286668 9.679592 -1.367830 1.716559 3.986880 0.998904 2.947940 -28.624467 1.042730 9.823820 -8.481738 -3.790763 76.004485 -44.301126 -30.332091 29.567993 -47.734220 -12.666813 -11.392042 -33.495655 2.298619 -8.124617 -5.899213 11.435178 -112.254637 -51.268580 59.390284 -12.009873 -31.475305 5.058767 10.334376 -32.861244 1.100467 -5.789507 -56.991633 1.883390 -3.769918 16.336876 1.514867 -7.973874 -1.014222 2.184703 0.020610 -1.787331 -1.716013 -3.373316 -56.991203 4.648467 2.028640 14.884267 -1.206461 3.075578 -0.232526 -2.500537 -0.013549 -1.221241 2.059646
